<svg fill="#000000" xmlns="http://www.w3.org/2000/svg"  viewBox="0 0 16 16" width="16px" height="16px"><path d="M 0 2 L 0 13 L 1 13 L 1 14 L 14 14 L 14 13 L 15 13 L 15 2 L 9.328125 2 C 8.664063 2 8.027344 2.265625 7.5625 2.734375 L 7.5 2.792969 L 7.4375 2.734375 C 6.972656 2.265625 6.335938 2 5.671875 2 Z M 1 3 L 5.671875 3 C 6.070313 3 6.449219 3.15625 6.734375 3.4375 L 7 3.707031 L 7 12.390625 C 6.605469 12.140625 6.144531 12 5.671875 12 L 1 12 Z M 9.328125 3 L 14 3 L 14 12 L 9.328125 12 C 8.855469 12 8.394531 12.140625 8 12.390625 L 8 3.707031 L 8.265625 3.4375 C 8.550781 3.15625 8.929688 3 9.328125 3 Z"/></svg>