<svg fill="#000000" xmlns="http://www.w3.org/2000/svg"  viewBox="0 0 16 16" width="16px" height="16px"><path d="M 7 1 C 3.691406 1 1 3.691406 1 7 C 1 10.308594 3.691406 13 7 13 C 9.085938 13 10.925781 11.929688 12 10.3125 L 12 11.5 C 12 12.871094 13.128906 14 14.5 14 L 15 14 L 15 13 L 14.5 13 C 13.671875 13 13 12.328125 13 11.5 L 13 7 C 13 3.691406 10.308594 1 7 1 Z M 7 2 C 9.765625 2 12 4.234375 12 7 C 12 9.765625 9.765625 12 7 12 C 4.234375 12 2 9.765625 2 7 C 2 4.234375 4.234375 2 7 2 Z M 5.4375 3.320313 C 4.980469 3.515625 4.546875 3.796875 4.171875 4.171875 C 3.796875 4.546875 3.515625 4.980469 3.320313 5.4375 L 4.789063 5.855469 C 4.902344 5.632813 5.046875 5.417969 5.234375 5.234375 C 5.417969 5.046875 5.632813 4.902344 5.855469 4.789063 Z M 8.5625 3.320313 L 8.144531 4.789063 C 8.367188 4.90625 8.582031 5.046875 8.765625 5.234375 C 8.953125 5.417969 9.097656 5.632813 9.210938 5.855469 L 10.679688 5.4375 C 10.484375 4.980469 10.203125 4.546875 9.828125 4.171875 C 9.453125 3.796875 9.019531 3.515625 8.5625 3.320313 Z M 7 6 C 6.449219 6 6 6.449219 6 7 C 6 7.550781 6.449219 8 7 8 C 7.550781 8 8 7.550781 8 7 C 8 6.449219 7.550781 6 7 6 Z M 4.789063 8.144531 L 3.320313 8.5625 C 3.515625 9.019531 3.796875 9.453125 4.171875 9.828125 C 4.546875 10.203125 4.980469 10.484375 5.441406 10.679688 L 5.855469 9.210938 C 5.632813 9.09375 5.417969 8.953125 5.234375 8.765625 C 5.046875 8.582031 4.90625 8.367188 4.789063 8.144531 Z M 9.210938 8.144531 C 9.09375 8.367188 8.953125 8.582031 8.765625 8.765625 C 8.582031 8.953125 8.367188 9.097656 8.144531 9.210938 L 8.5625 10.679688 C 9.019531 10.484375 9.453125 10.203125 9.828125 9.828125 C 10.203125 9.453125 10.484375 9.019531 10.679688 8.5625 Z"/></svg>