<svg fill="#000000" xmlns="http://www.w3.org/2000/svg"  viewBox="0 0 16 16" width="16px" height="16px"><path d="M 3.632813 3.03125 C 2.753906 3.03125 1.9375 3.488281 1.488281 4.242188 L 1.460938 4.289063 L 1.441406 4.34375 C 1.441406 4.34375 1.085938 5.441406 0.726563 6.75 C 0.367188 8.058594 0 9.535156 0 10.5 C 0 11.875 1.125 13 2.5 13 C 3.710938 13 4.730469 12.128906 4.953125 10.976563 L 4.9375 11.035156 C 5 10.835938 5.054688 10.609375 5.109375 10.390625 C 5.160156 10.160156 5.359375 10 5.59375 10 L 10.40625 10 C 10.640625 10 10.839844 10.15625 10.890625 10.390625 C 10.945313 10.609375 11 10.835938 11.0625 11.035156 L 11.046875 10.976563 C 11.269531 12.128906 12.289063 13 13.5 13 C 14.875 13 16 11.875 16 10.5 C 16 9.535156 15.632813 8.058594 15.273438 6.75 C 14.914063 5.441406 14.558594 4.34375 14.558594 4.34375 L 14.542969 4.289063 L 14.511719 4.242188 C 14.0625 3.488281 13.246094 3.03125 12.367188 3.03125 Z M 3.632813 4.03125 L 12.367188 4.03125 C 12.886719 4.03125 13.363281 4.304688 13.636719 4.746094 C 13.660156 4.824219 13.972656 5.785156 14.308594 7.015625 C 14.660156 8.296875 15 9.820313 15 10.5 C 15 11.335938 14.335938 12 13.5 12 C 12.765625 12 12.164063 11.476563 12.03125 10.785156 L 12.015625 10.730469 C 11.96875 10.585938 11.914063 10.371094 11.863281 10.164063 L 11.863281 10.160156 C 11.707031 9.488281 11.101563 9 10.40625 9 L 5.59375 9 C 4.898438 9 4.292969 9.488281 4.132813 10.164063 C 4.085938 10.371094 4.03125 10.585938 3.984375 10.730469 L 3.96875 10.785156 C 3.835938 11.476563 3.234375 12 2.5 12 C 1.664063 12 1 11.335938 1 10.5 C 1 9.820313 1.339844 8.296875 1.691406 7.015625 C 2.027344 5.785156 2.339844 4.824219 2.367188 4.746094 C 2.636719 4.304688 3.113281 4.03125 3.632813 4.03125 Z M 4 5 L 4 6 L 3 6 L 3 7 L 4 7 L 4 8 L 5 8 L 5 7 L 6 7 L 6 6 L 5 6 L 5 5 Z M 11.5 5 C 11.222656 5 11 5.222656 11 5.5 C 11 5.777344 11.222656 6 11.5 6 C 11.777344 6 12 5.777344 12 5.5 C 12 5.222656 11.777344 5 11.5 5 Z M 10.5 6 C 10.222656 6 10 6.222656 10 6.5 C 10 6.777344 10.222656 7 10.5 7 C 10.777344 7 11 6.777344 11 6.5 C 11 6.222656 10.777344 6 10.5 6 Z M 12.5 6 C 12.222656 6 12 6.222656 12 6.5 C 12 6.777344 12.222656 7 12.5 7 C 12.777344 7 13 6.777344 13 6.5 C 13 6.222656 12.777344 6 12.5 6 Z M 11.5 7 C 11.222656 7 11 7.222656 11 7.5 C 11 7.777344 11.222656 8 11.5 8 C 11.777344 8 12 7.777344 12 7.5 C 12 7.222656 11.777344 7 11.5 7 Z"/></svg>