<?xml version="1.0" encoding="UTF-8"?>
<svg width="752pt" height="752pt" version="1.1" viewBox="0 0 752 752" xmlns="http://www.w3.org/2000/svg">
 <path d="m192.19 233.93c-10.891 0-19.828 8.9414-19.828 19.832v187.66c0 10.895 8.9375 19.832 19.828 19.832h247.45c6.4219 32.336 34.977 56.828 69.258 56.828 39.008 0 70.742-31.668 70.742-70.59 0-38.926-31.734-70.445-70.742-70.445-4.9844 0-9.8047 0.49609-14.5 1.4766v-124.76c0-10.891-8.9414-19.832-19.832-19.832zm0 9.4727h141.19c0.55859 30.391 25.68 56.828 56.828 56.828 31.148 0 56.273-26.438 56.832-56.828h27.527c5.7539 0 10.359 4.6055 10.359 10.359v120.17l-39.219-39.219c-1.7305-1.7227-4.4844-1.8516-6.3633-0.29688l-49.281 40.254-96.492-73.551c-1.0195-0.76172-2.2969-1.082-3.5547-0.89063-0.6875 0.10547-1.3438 0.35547-1.9219 0.74219l-106.26 75.328v-122.54c0-5.7539 4.6055-10.359 10.359-10.359zm150.66 0h94.715c-0.55078 25.188-21.66 47.359-47.359 47.359-25.695 0-46.805-22.172-47.355-47.359zm-52.094 67.336 96.641 73.703c1.7344 1.2656 4.1016 1.2031 5.7695-0.14844l48.691-39.957 38.625 38.625c-24.863 10.922-42.176 35.691-42.176 64.527 0 1.4375 0.0625 2.8711 0.14453 4.2891h-246.26c-5.7539 0-10.359-4.6055-10.359-10.359v-53.574zm218.14 75.625c15.168 0 29.113 5.4141 39.812 14.504l-86.281 86.43c-9.2305-10.707-14.801-24.566-14.801-39.809 0-33.812 27.391-61.125 61.27-61.125zm46.473 21.312c9.2305 10.707 14.797 24.566 14.797 39.812 0 33.809-27.387 61.121-61.27 61.121-15.23 0-29.09-5.4883-39.809-14.652z"/>
</svg>
